<svg width="175" height="41" viewBox="0 0 175 41" fill="none" xmlns="http://www.w3.org/2000/svg">
<path d="M11.425 19.3263H9.37844C9.25736 19.3209 9.13686 19.3058 9.01797 19.2814C8.88774 19.2583 8.7561 19.2447 8.62402 19.2406H10.6706C10.8027 19.2447 10.9343 19.2583 11.0645 19.2814C11.1841 19.306 11.3052 19.321 11.427 19.3263" fill="#9D5E12"/>
<path d="M9.45571 14.8185H7.41309C7.51157 14.8185 7.58642 14.8042 7.63961 14.8042H9.6783C9.62511 14.8042 9.55026 14.8042 9.45374 14.8185" fill="#A56313"/>
<path d="M2.24089 31.6127H0.196289C0.566602 31.5228 0.901459 31.4351 1.20086 31.3534H3.24546C2.94803 31.4351 2.6112 31.5228 2.24089 31.6127Z" fill="#A56313"/>
<path d="M3.24572 31.3534H1.20703C1.74314 31.2218 2.26662 31.0401 2.77101 30.8104C2.8695 30.7573 2.96799 30.7022 3.05071 30.6429H5.0894C5.00076 30.7022 4.90819 30.7573 4.8097 30.8104C4.30543 31.0404 3.78193 31.2222 3.24572 31.3534" fill="#A16012"/>
<path d="M5.08979 30.6429H3.0511C3.39514 30.4364 3.67948 30.1381 3.87452 29.779C4.06956 29.42 4.16816 29.0133 4.16007 28.6013C4.16007 27.9786 3.8587 27.2865 3.25201 26.5189C2.20148 25.2191 1.63091 24.4963 1.5403 24.3507C0.926595 23.3673 0.605341 22.2186 0.616492 21.0474C0.616492 19.2957 1.36959 17.8414 2.87579 16.6845C3.04125 16.5559 3.21065 16.4334 3.38596 16.317H5.42465C5.25131 16.4334 5.07994 16.5559 4.91645 16.6845C3.40894 17.8441 2.65518 19.2984 2.65518 21.0474C2.64534 22.2177 2.96651 23.3654 3.57899 24.3487C3.66697 24.4929 4.23754 25.2157 5.2907 26.5168C5.89739 27.2845 6.20073 27.9766 6.20073 28.5993C6.20883 29.0115 6.11002 29.4184 5.9146 29.7775C5.71919 30.1366 5.43433 30.4348 5.08979 30.6409" fill="#9D5E12"/>
<path d="M5.42345 16.3171H3.38477C4.22563 15.7654 5.14393 15.3522 6.10696 15.0922H8.14761C7.18397 15.3522 6.26502 15.7654 5.42345 16.3171" fill="#A16012"/>
<path d="M8.1481 15.1003H6.10547C6.53521 14.9835 6.97043 14.8894 7.40944 14.8186H9.45404C9.01496 14.889 8.57971 14.983 8.15007 15.1003" fill="#A56313"/>
<path d="M4.46156 36.2921H2.42287C2.21802 36.2921 1.76301 35.6197 1.05784 34.275C0.352666 32.9302 8.16819e-05 32.1102 8.16819e-05 31.8148C-0.00085831 31.7836 0.00632935 31.7528 0.0208881 31.7255C0.0354469 31.6982 0.0568384 31.6754 0.0828111 31.6597H2.1215C2.09553 31.6754 2.07414 31.6982 2.05958 31.7255C2.04502 31.7528 2.03783 31.7836 2.03877 31.8148C2.03877 32.1102 2.39201 32.9302 3.09849 34.275C3.80498 35.6197 4.25933 36.2921 4.46156 36.2921Z" fill="#9D5E12"/>
<path d="M2.12267 31.6596H0.0839844C0.112684 31.6412 0.143895 31.6275 0.176563 31.6188H2.21722C2.18395 31.6275 2.15209 31.6413 2.12267 31.6596" fill="#A16012"/>
<path d="M9.67781 14.8042C9.81372 14.8042 9.92009 14.9185 10.0008 15.1472C10.2307 15.8481 10.771 17.1119 11.6219 18.9384C11.6459 18.9822 11.6601 19.0311 11.6633 19.0813C11.6676 19.1147 11.6643 19.1487 11.6538 19.1806C11.6433 19.2125 11.6259 19.2414 11.6028 19.2651C11.5797 19.2889 11.5516 19.3067 11.5208 19.3173C11.49 19.328 11.4572 19.331 11.425 19.3263C11.3032 19.321 11.1821 19.306 11.0625 19.2814C10.9323 19.2583 10.8007 19.2447 10.6686 19.2406C10.0736 19.2267 9.48748 19.3912 8.98052 19.7142C8.715 19.8607 8.4935 20.0801 8.34029 20.3484C8.18707 20.6167 8.10804 20.9235 8.11186 21.2352C8.11186 21.8191 8.43293 22.5371 9.07507 23.3891C10.2077 24.9183 10.8025 25.7247 10.8478 25.8002C11.4464 26.7327 11.7764 27.8225 11.7992 28.9423C11.7992 30.8886 11.0369 32.5545 9.51235 33.9401C8.13156 35.1848 6.43701 35.9957 4.62738 36.2777C4.56998 36.2866 4.51206 36.2913 4.45404 36.292C4.24919 36.292 3.79483 35.6197 3.09097 34.2749C2.38712 32.9302 2.03388 32.1101 2.03125 31.8148C2.03125 31.7086 2.10019 31.6433 2.22822 31.6106C3.52038 31.2942 4.37722 31.0288 4.7889 30.8083C5.70811 30.3101 6.17166 29.5731 6.17954 28.5972C6.17954 27.9745 5.8762 27.2824 5.26951 26.5148C4.21898 25.215 3.64841 24.4923 3.5578 24.3466C2.94532 23.3634 2.62416 22.2157 2.63399 21.0454C2.63399 19.2937 3.38775 17.8394 4.89526 16.6825C6.12701 15.7297 7.63715 15.1077 9.42568 14.8164C9.54977 14.8103 9.62463 14.8042 9.67781 14.8042Z" fill="#ED901F"/>
<path d="M26.4694 30.704H24.4248C24.8483 30.7054 25.2702 30.6491 25.6795 30.5366H27.7202C27.3101 30.649 26.8876 30.7052 26.4635 30.704" fill="#A56313"/>
<path d="M27.7262 30.5264H25.6855C26.1928 30.3843 26.6754 30.1604 27.1156 29.8629H29.1523C28.9975 29.9664 28.8377 30.0618 28.6737 30.1487C28.3699 30.3082 28.0511 30.4348 27.7223 30.5264" fill="#A16012"/>
<path d="M29.152 29.8629H27.1152C27.4371 29.6488 27.7421 29.4085 28.0272 29.1443C28.2183 28.9604 28.4189 28.7873 28.628 28.6257H30.6667C30.4607 28.7872 30.2634 28.9603 30.0758 29.1443C29.7899 29.4076 29.485 29.6478 29.1638 29.8629" fill="#9D5E12"/>
<path d="M30.6666 28.6257H28.6279C28.6423 28.615 28.6583 28.6067 28.6752 28.6012H30.7159C30.6982 28.6062 30.6815 28.6145 30.6666 28.6257Z" fill="#A16012"/>
<path d="M30.7497 22.4559H28.711C28.6676 22.4559 28.4431 22.264 28.0413 21.8802C27.6138 21.4609 27.1373 21.0988 26.623 20.8022C25.9467 20.4275 25.1917 20.2312 24.4248 20.2306H26.4635C27.229 20.2324 27.9824 20.4287 28.6578 20.8022C29.1712 21.0993 29.6469 21.4614 30.074 21.8802C30.4772 22.264 30.7004 22.4559 30.7438 22.4559" fill="#9D5E12"/>
<path d="M26.3086 36.049H24.2699C21.4873 36.049 19.2313 35.0282 17.5018 32.9866C15.8144 31.0171 14.9707 28.5305 14.9707 25.5266C14.9707 22.6194 15.796 20.1504 17.4467 18.1197C18.0274 17.392 18.7115 16.76 19.4755 16.2455H21.5142C20.7506 16.7606 20.0666 17.3924 19.4854 18.1197C17.8347 20.149 17.0094 22.618 17.0094 25.5266C17.0094 28.5318 17.8524 31.0199 19.5385 32.9907C21.268 35.0323 23.524 36.0531 26.3066 36.0531" fill="#9D5E12"/>
<path d="M21.5153 16.2455H19.4766C20.1596 15.788 20.9072 15.4436 21.6925 15.2247H23.7332C22.9472 15.4436 22.1989 15.788 21.5153 16.2455" fill="#A16012"/>
<path d="M23.733 15.2348H21.6924C22.4504 15.0295 23.2312 14.9279 24.0147 14.9327H26.0554C25.2718 14.9276 24.4911 15.0292 23.733 15.2348" fill="#A56313"/>
<path d="M26.0558 14.9326C28.9447 14.9326 31.2093 15.8854 32.8494 17.7909C33.0007 17.939 33.0963 18.1379 33.1193 18.3523C33.1193 18.5333 32.8094 19.2077 32.1895 20.3755C31.5697 21.5433 31.1791 22.1959 31.0175 22.3334C30.9832 22.3711 30.9416 22.4009 30.8955 22.421C30.8493 22.441 30.7997 22.4508 30.7497 22.4498C30.7063 22.4498 30.4831 22.2579 30.0799 21.8741C29.6528 21.4553 29.1771 21.0932 28.6637 20.7961C27.9883 20.4226 27.2349 20.2263 26.4694 20.2244C25.8601 20.2035 25.2549 20.3361 24.706 20.611C24.157 20.8859 23.6807 21.2948 23.3178 21.8026C22.5943 22.7798 22.2331 23.9857 22.2344 25.4203C22.2344 26.8753 22.5956 28.0955 23.3178 29.0809C23.6762 29.5955 24.151 30.0111 24.7005 30.2913C25.2499 30.5714 25.8573 30.7075 26.4694 30.6876C27.2367 30.6899 27.9935 30.503 28.6775 30.1425C29.1798 29.8695 29.6471 29.532 30.0681 29.1381C30.2641 28.9297 30.4837 28.7466 30.7221 28.593C30.7753 28.5973 30.827 28.6138 30.8733 28.6413C30.9196 28.6689 30.9595 28.7067 30.99 28.7522C31.1338 28.9217 31.5218 29.5219 32.1541 30.5447C32.8107 31.6064 33.139 32.1903 33.139 32.2964C33.1079 32.5227 33.0095 32.7333 32.8573 32.8987C31.2158 34.9961 29.0353 36.0441 26.3158 36.0427C23.5345 36.0427 21.2785 35.0219 19.5477 32.9803C17.8616 31.0082 17.0186 28.5201 17.0186 25.5163C17.0186 22.609 17.8439 20.1401 19.4945 18.1093C21.2056 15.9915 23.3927 14.9326 26.0558 14.9326Z" fill="#ED901F"/>
<path d="M51.1808 35.6325H49.1401C48.346 35.6485 47.5517 35.6199 46.7607 35.5468C46.646 35.5373 46.5329 35.5133 46.4238 35.4753H48.4566C48.5649 35.5135 48.6774 35.5375 48.7915 35.5468C49.5832 35.6199 50.3782 35.6485 51.1729 35.6325" fill="#9D5E12"/>
<path d="M48.4572 35.4754H46.4244C46.3393 35.3989 46.2754 35.3002 46.2393 35.1896H48.2779C48.3145 35.3005 48.3792 35.3992 48.4651 35.4754" fill="#9D5E12"/>
<path d="M48.2772 35.1956H46.2385C46.1072 34.82 45.9102 34.264 45.6476 33.5276C45.2983 32.5749 44.754 31.1642 44.0146 29.2954H46.0533C46.794 31.1587 47.3383 32.5695 47.6863 33.5276C47.9489 34.264 48.1459 34.82 48.2772 35.1956Z" fill="#9D5E12"/>
<path d="M46.0556 29.2894H44.0169C43.8593 28.9219 43.5008 28.7177 42.9395 28.6769H44.9781C45.5395 28.7218 45.898 28.926 46.0556 29.2894Z" fill="#9D5E12"/>
<path d="M45.4537 25.0245H43.415C43.8383 25.0304 44.2607 24.9803 44.6717 24.8755H46.7104C46.2994 24.9805 45.877 25.0306 45.4537 25.0245Z" fill="#A56313"/>
<path d="M46.7106 24.8755H44.6719C44.9349 24.8061 45.186 24.6953 45.4164 24.5468H47.4551C47.2249 24.6956 46.9737 24.8065 46.7106 24.8755" fill="#A16012"/>
<path d="M47.4553 24.5467H45.4167C46.0352 24.1384 46.3444 23.4654 46.3444 22.5276C46.3444 21.3598 45.9872 20.5513 45.2729 20.1022C44.7213 19.7551 43.8547 19.5836 42.6787 19.5836H44.7135C45.8953 19.5836 46.76 19.7565 47.3076 20.1022C48.0207 20.5513 48.3772 21.3598 48.3772 22.5276C48.3772 23.4627 48.0679 24.1357 47.4494 24.5467" fill="#9D5E12"/>
<path d="M38.0837 16.0821H36.045L36.0312 15.88H38.0699L38.0837 16.0821Z" fill="#995B11"/>
<path d="M38.0702 15.8801H36.0315C36.0294 15.8346 36.0399 15.7894 36.0619 15.7499C36.0839 15.7104 36.1165 15.6784 36.1556 15.6576H38.1943C38.1553 15.6786 38.1229 15.7107 38.1009 15.7501C38.0789 15.7895 38.0683 15.8346 38.0702 15.8801Z" fill="#9D5E12"/>
<path d="M38.1949 15.6576H36.1562C36.2171 15.6188 36.2836 15.5905 36.3532 15.5739H38.3939C38.3244 15.5908 38.2579 15.619 38.1969 15.6576" fill="#A16012"/>
<path d="M38.3932 15.5738H36.3525L36.451 15.5493C36.7399 15.4922 38.103 15.435 40.5402 15.3778C42.1896 15.3411 43.5027 15.322 44.4797 15.3207H46.5263C45.5453 15.3207 44.2322 15.3397 42.5868 15.3778C40.1522 15.4364 38.7898 15.4935 38.4996 15.5493L38.4011 15.5738" fill="#A56313"/>
<path d="M52.3721 31.4126C53.4594 33.8244 54.003 35.1548 54.003 35.4039C54.003 35.4692 53.9144 35.5182 53.7351 35.5468C52.8838 35.6258 52.0289 35.6544 51.1745 35.6325C50.3797 35.6485 49.5848 35.6199 48.793 35.5468C48.679 35.5375 48.5665 35.5135 48.4582 35.4753C48.3723 35.3991 48.3077 35.3004 48.2711 35.1895C48.1397 34.8139 47.9428 34.2579 47.6801 33.5215C47.3321 32.5688 46.7878 31.158 46.0472 29.2893C45.8896 28.9218 45.5311 28.7176 44.9698 28.6768C45.1667 28.6952 44.694 28.7034 43.5594 28.7034C43.4275 28.7034 43.3624 28.9463 43.3624 29.4363C43.3624 30.0855 43.4156 31.0594 43.5279 32.3497C43.6402 33.6399 43.6953 34.6117 43.6953 35.2651C43.6953 35.4263 43.6559 35.5223 43.5752 35.5509L43.2009 35.5795C42.6757 35.6162 41.8556 35.6353 40.7407 35.6366C39.4643 35.6366 38.6968 35.608 38.4381 35.5509C38.3294 35.5445 38.2274 35.4945 38.1538 35.4113C38.0802 35.3282 38.0409 35.2186 38.0441 35.1058C38.0441 34.0551 38.0908 32.4667 38.184 30.3407C38.2772 28.2147 38.3245 26.6209 38.3258 25.5593C38.3258 21.5101 38.2411 18.3518 38.0717 16.0842L38.0579 15.8801C38.0579 15.7167 38.1899 15.6065 38.4794 15.5493C38.769 15.4922 40.1321 15.437 42.5667 15.3778C44.216 15.3411 45.5292 15.322 46.5062 15.3207C48.5389 15.3207 50.1975 15.8134 51.4817 16.7988C52.9354 17.9094 53.6623 19.5128 53.6623 21.6088C53.6623 23.0053 53.4745 24.12 53.0989 24.9529C52.7233 25.7859 52.0326 26.5951 51.0267 27.3804C50.8298 27.5315 50.7175 27.6744 50.7175 27.8091C50.7175 27.8091 51.269 29.0103 52.3721 31.4126ZM45.4543 25.0244C47.407 25.0244 48.3833 24.1921 48.3833 22.5275C48.3833 21.3597 48.0268 20.5513 47.3138 20.1021C46.7622 19.755 45.8955 19.5822 44.7137 19.5835C43.8647 19.5835 43.4156 19.7224 43.3624 19.9919C43.3099 20.3172 43.283 21.2549 43.2817 22.8052C43.2817 23.0257 43.2817 23.3503 43.2955 23.7811C43.3093 24.2118 43.3093 24.5324 43.3093 24.7447C43.3093 24.7917 43.4511 24.8386 43.7367 24.8876C44.3033 24.9751 44.8755 25.0181 45.4484 25.0162" fill="#ED901F"/>
<path d="M40.7472 35.6326H38.7065C37.4327 35.6326 36.6659 35.604 36.4059 35.5468C36.2972 35.5405 36.1952 35.4904 36.1216 35.4073C36.048 35.3242 36.0087 35.2145 36.0119 35.1018C36.0119 34.051 36.0585 32.4627 36.1518 30.3367C36.245 28.2107 36.2916 26.6169 36.2916 25.5553C36.2916 21.5061 36.2076 18.3477 36.0395 16.0802H38.0782C38.2476 18.3505 38.3323 21.5088 38.3323 25.5553C38.3323 26.6182 38.285 28.2121 38.1904 30.3367C38.0959 32.4613 38.0493 34.0497 38.0506 35.1018C38.0473 35.2145 38.0867 35.3242 38.1603 35.4073C38.2339 35.4904 38.3359 35.5405 38.4445 35.5468C38.7072 35.604 39.4747 35.6326 40.7472 35.6326" fill="#9D5E12"/>
<path d="M87.1022 31.1993H85.0635C85.6705 31.2192 86.2777 31.163 86.8717 31.0319H88.9104C88.3164 31.163 87.7092 31.2192 87.1022 31.1993" fill="#A56313"/>
<path d="M88.9108 31.0308H86.8662C86.943 31.0093 87.0186 30.9834 87.0927 30.9532H89.1314C89.0574 30.9837 88.9818 31.0096 88.9049 31.0308" fill="#A16012"/>
<path d="M89.1383 30.9532H87.0996C87.1972 30.9119 87.2908 30.8613 87.3793 30.8021H89.4279C89.3386 30.8613 89.2444 30.9119 89.1462 30.9532" fill="#A16012"/>
<path d="M89.4271 30.8021H87.3786C87.8435 30.4959 88.0739 29.9855 88.0739 29.2893C88.0739 28.4278 87.741 27.8418 87.0713 27.5376C86.6439 27.3335 85.9486 27.2498 84.9834 27.2498H87.0221C87.9873 27.2498 88.6826 27.3437 89.11 27.5376C89.7797 27.8418 90.1146 28.4278 90.1146 29.2893C90.1146 29.9916 89.8828 30.4959 89.4193 30.8021" fill="#9D5E12"/>
<path d="M87.7734 35.7203H85.7347C85.5121 35.7203 85.1891 35.7203 84.7695 35.704H86.8102C87.2297 35.704 87.5508 35.7203 87.7734 35.7203Z" fill="#9D5E12"/>
<path d="M86.8375 23.0279H84.7969C85.3041 23.0389 85.8106 22.9819 86.3037 22.8584H88.3444C87.8512 22.9817 87.3448 23.0386 86.8375 23.0279" fill="#A56313"/>
<path d="M88.3444 22.8584H86.3037C86.5528 22.7953 86.7908 22.6919 87.0089 22.5521H89.0495C88.8313 22.6915 88.5933 22.7949 88.3444 22.8584" fill="#A16012"/>
<path d="M89.0499 22.552H87.0092C87.2221 22.4191 87.3963 22.229 87.5135 22.0019C87.6307 21.7748 87.6865 21.519 87.675 21.2618C87.675 20.4451 87.2916 19.9007 86.5247 19.6285C86.0953 19.4924 85.3901 19.4243 84.4092 19.4243H86.4479C87.4327 19.4243 88.1359 19.4958 88.5634 19.6285C89.329 19.9007 89.7124 20.4451 89.7137 21.2618C89.7254 21.5188 89.6699 21.7744 89.5531 22.0016C89.4362 22.2287 89.2624 22.4189 89.0499 22.552" fill="#9D5E12"/>
<path d="M79.6257 15.9373H77.587L77.5732 15.7372H79.6119L79.6257 15.9373Z" fill="#995B11"/>
<path d="M79.6127 15.7372H77.574C77.5704 15.6903 77.5797 15.6433 77.601 15.6017C77.6223 15.5601 77.6546 15.5256 77.6942 15.5024H79.7329C79.6936 15.526 79.6616 15.5605 79.6404 15.602C79.6191 15.6435 79.6095 15.6904 79.6127 15.7372Z" fill="#9D5E12"/>
<path d="M79.732 15.5024H77.6934C77.7427 15.4726 77.7957 15.4499 77.8509 15.4351H79.8896C79.8345 15.4503 79.7815 15.4729 79.732 15.5024" fill="#A16012"/>
<path d="M79.8902 15.4344H77.8516C77.8989 15.4218 77.9469 15.4122 77.9954 15.4058C78.2829 15.367 79.3171 15.3486 81.0918 15.3486H83.1246C81.3505 15.3486 80.3183 15.3677 80.0281 15.4058C79.9797 15.4124 79.9317 15.4219 79.8843 15.4344" fill="#A56313"/>
<path d="M85.8603 35.704H83.8216C80.5295 35.704 78.5716 35.6326 77.9478 35.4896C77.839 35.4828 77.737 35.4323 77.6635 35.3488C77.5899 35.2654 77.5506 35.1555 77.5539 35.0425C77.5539 34.0204 77.6097 32.4708 77.7213 30.3938C77.8329 28.3168 77.8888 26.7611 77.8888 25.7267C77.8888 24.6175 77.8349 22.5316 77.7272 19.4692C77.6997 18.6852 77.6511 17.5079 77.5815 15.9373H79.6202C79.6911 17.5066 79.7403 18.6839 79.7679 19.4692C79.8743 22.5316 79.9274 24.6175 79.9274 25.7267C79.9274 26.7611 79.8716 28.3168 79.76 30.3938C79.6484 32.4708 79.5926 34.0204 79.5926 35.0425C79.5893 35.1555 79.6286 35.2654 79.7021 35.3488C79.7757 35.4323 79.8777 35.4828 79.9865 35.4896C80.6116 35.6258 82.5695 35.6972 85.8603 35.704" fill="#9D5E12"/>
<path d="M94.9836 26.9619C95.3051 27.7125 95.4689 28.5253 95.4642 29.3465C95.4642 31.1064 94.9514 32.5654 93.9258 33.7237C92.7584 35.0548 90.7073 35.7204 87.7723 35.7204C87.5498 35.7204 87.2287 35.7204 86.8091 35.704H85.8597C82.5689 35.704 80.611 35.6326 79.9859 35.4897C79.8771 35.4828 79.7751 35.4323 79.7015 35.3489C79.628 35.2654 79.5887 35.1555 79.592 35.0426C79.592 34.0204 79.6478 32.4708 79.7594 30.3938C79.871 28.3169 79.9268 26.7612 79.9268 25.7267C79.9268 24.6175 79.8737 22.5316 79.7673 19.4692C79.7397 18.6853 79.6905 17.5079 79.6196 15.9373L79.6058 15.7331C79.6058 15.5514 79.7377 15.4412 80.0273 15.4024C80.3169 15.3636 81.349 15.3452 83.1237 15.3452C85.9681 15.3452 87.6318 15.3547 88.1151 15.3738C90.3068 15.4595 91.9252 15.842 92.9705 16.5212C94.3533 17.4317 95.0446 18.9677 95.0446 21.1291C95.0271 21.7597 94.8615 22.3764 94.5621 22.9257C94.3073 23.408 94.0021 23.8599 93.652 24.2731C93.504 24.471 93.3392 24.6548 93.1596 24.8223C93.1596 24.8856 93.2739 24.9918 93.5043 25.1347C94.1714 25.5663 94.6893 26.206 94.9836 26.9619V26.9619ZM89.1374 30.9532C89.794 30.681 90.1223 30.1264 90.1223 29.2893C90.1223 28.4278 89.7874 27.8418 89.1177 27.5376C88.6902 27.3335 87.9949 27.2498 87.0297 27.2498C85.8794 27.2498 85.257 27.2947 85.1585 27.3845C85.06 27.4744 85.0108 28.0623 85.0108 29.1444C85.0108 30.2727 85.0685 30.8974 85.1841 31.0186C85.3003 31.137 85.9424 31.1982 87.1105 31.1982C88.0757 31.1982 88.7513 31.1166 89.1453 30.9532H89.1374ZM84.9556 20.4676C84.9241 20.8351 84.9103 21.1107 84.9103 21.2842C84.9103 22.2417 84.9852 22.7787 85.1368 22.891C85.2353 22.9788 85.8026 23.0196 86.8367 23.0196C88.7526 23.0196 89.7112 22.4309 89.7125 21.2536C89.7125 20.437 89.3291 19.8925 88.5622 19.6203C88.1348 19.4774 87.4276 19.4162 86.4467 19.4162C85.4658 19.4162 85.0029 19.4917 85.0029 19.6469C85.0029 19.802 84.9871 20.1021 84.9556 20.4635" fill="#ED901F"/>
<path d="M108.094 31.1993H106.056C106.662 31.2193 107.269 31.1631 107.862 31.0319H109.901C109.307 31.1631 108.701 31.2193 108.094 31.1993" fill="#A56313"/>
<path d="M109.9 31.0308H107.861C107.938 31.0093 108.014 30.9834 108.088 30.9532H110.127C110.053 30.9837 109.977 31.0096 109.9 31.0308" fill="#A16012"/>
<path d="M110.129 30.9532H108.09C108.188 30.9119 108.282 30.8613 108.372 30.8021H110.41C110.321 30.8613 110.227 30.9119 110.129 30.9532" fill="#A16012"/>
<path d="M110.409 30.8021H108.371C108.833 30.4959 109.065 29.9916 109.066 29.2893C109.066 28.4278 108.731 27.8418 108.062 27.5376C107.634 27.3335 106.939 27.2498 105.976 27.2498H108.016C108.977 27.2498 109.673 27.3437 110.1 27.5376C110.77 27.8418 111.105 28.4278 111.105 29.2893C111.105 29.9916 110.873 30.4959 110.409 30.8021Z" fill="#9D5E12"/>
<path d="M108.762 35.7203H106.723C106.5 35.7203 106.179 35.7203 105.762 35.704H107.8C108.218 35.704 108.539 35.7203 108.762 35.7203Z" fill="#9D5E12"/>
<path d="M107.826 23.0279H105.787C106.294 23.0386 106.801 22.9817 107.294 22.8584H109.333C108.84 22.9819 108.333 23.0389 107.826 23.0279" fill="#A56313"/>
<path d="M109.334 22.8584H107.295C107.544 22.7949 107.782 22.6915 108 22.5521H110.039C109.821 22.6919 109.583 22.7953 109.334 22.8584" fill="#A16012"/>
<path d="M110.038 22.552H107.999C108.212 22.4189 108.386 22.2287 108.503 22.0016C108.619 21.7744 108.675 21.5188 108.663 21.2618C108.663 20.4451 108.28 19.9007 107.513 19.6285C107.085 19.4924 106.38 19.4243 105.399 19.4243H107.438C108.423 19.4243 109.124 19.4958 109.552 19.6285C110.32 19.9007 110.703 20.4451 110.702 21.2618C110.714 21.5188 110.658 21.7744 110.541 22.0016C110.424 22.2287 110.251 22.4189 110.038 22.552" fill="#9D5E12"/>
<path d="M100.616 15.9373H98.5772L98.5654 15.7372H100.604L100.616 15.9373Z" fill="#995B11"/>
<path d="M100.605 15.7371H98.5663C98.5624 15.6901 98.5717 15.643 98.593 15.6014C98.6143 15.5597 98.6467 15.5253 98.6864 15.5023H100.725C100.685 15.5253 100.653 15.5597 100.632 15.6014C100.61 15.643 100.601 15.6901 100.605 15.7371" fill="#9D5E12"/>
<path d="M100.725 15.5035H98.6865C98.7351 15.4737 98.7875 15.451 98.8421 15.4362H100.881C100.826 15.451 100.774 15.4737 100.725 15.5035" fill="#A16012"/>
<path d="M100.88 15.4343H98.8418C98.8898 15.4216 98.9384 15.4121 98.9876 15.4057C99.2778 15.3676 100.309 15.3485 102.082 15.3485H104.123C102.349 15.3485 101.316 15.3676 101.026 15.4057C100.977 15.4123 100.929 15.4218 100.88 15.4343" fill="#A56313"/>
<path d="M106.85 35.704H104.811C101.519 35.704 99.5609 35.6326 98.9372 35.4896C98.8281 35.4833 98.7258 35.433 98.6522 35.3494C98.5786 35.2658 98.5394 35.1557 98.5432 35.0425C98.5432 34.0204 98.5984 32.4708 98.7087 30.3938C98.8229 28.3175 98.8761 26.7618 98.8761 25.7267C98.8761 24.6175 98.8229 22.5316 98.7166 19.4692C98.6916 18.6852 98.6424 17.5079 98.5688 15.9373H100.615C100.689 17.5066 100.738 18.6839 100.763 19.4692C100.871 22.5316 100.925 24.6175 100.925 25.7267C100.925 26.7611 100.868 28.3168 100.755 30.3938C100.642 32.4708 100.587 34.0204 100.59 35.0425C100.587 35.1555 100.626 35.2654 100.699 35.3488C100.773 35.4323 100.875 35.4828 100.984 35.4896C101.607 35.6258 103.565 35.6972 106.856 35.704" fill="#9D5E12"/>
<path d="M115.974 26.9619C116.297 27.712 116.461 28.5251 116.456 29.3465C116.456 31.1064 115.944 32.5654 114.918 33.7237C113.751 35.0548 111.699 35.7204 108.763 35.7204C108.54 35.7204 108.219 35.7204 107.801 35.704H106.85C103.56 35.704 101.603 35.6326 100.978 35.4897C100.869 35.4828 100.767 35.4323 100.694 35.3489C100.62 35.2654 100.581 35.1555 100.584 35.0426C100.584 34.0204 100.639 32.4708 100.75 30.3938C100.86 28.3169 100.916 26.7612 100.919 25.7267C100.919 24.6175 100.865 22.5316 100.758 19.4692C100.733 18.6853 100.683 17.5079 100.61 15.9373L100.598 15.7331C100.588 15.5514 100.728 15.4412 101.019 15.4024C101.311 15.3636 102.341 15.3452 104.116 15.3452C106.962 15.3452 108.625 15.3547 109.105 15.3738C111.3 15.4595 112.918 15.842 113.961 16.5212C115.345 17.4317 116.036 18.9677 116.035 21.1291C116.018 21.7595 115.853 22.3762 115.554 22.9257C115.299 23.408 114.994 23.8599 114.644 24.2731C114.496 24.4704 114.331 24.6542 114.152 24.8223C114.152 24.8856 114.264 24.9918 114.497 25.1347C115.163 25.5665 115.68 26.2063 115.974 26.9619V26.9619ZM110.128 30.9532C110.784 30.681 111.112 30.1264 111.112 29.2893C111.112 28.4278 110.778 27.8418 110.108 27.5376C109.68 27.3335 108.985 27.2498 108.024 27.2498C106.872 27.2498 106.248 27.2947 106.151 27.3845C106.054 27.4744 106.004 28.061 106.003 29.1444C106.003 30.2727 106.061 30.8974 106.176 31.0186C106.293 31.137 106.935 31.1982 108.103 31.1982C109.067 31.1982 109.744 31.1166 110.135 30.9532H110.128ZM105.948 20.4676C105.916 20.8351 105.901 21.1107 105.901 21.2842C105.901 22.2417 105.977 22.7787 106.129 22.891C106.226 22.9788 106.793 23.0196 107.827 23.0196C109.745 23.0196 110.704 22.4309 110.703 21.2536C110.703 20.437 110.319 19.8925 109.552 19.6203C109.125 19.4774 108.422 19.4162 107.439 19.4162C106.456 19.4162 105.995 19.4917 105.995 19.6469C105.995 19.802 105.979 20.1021 105.948 20.4635" fill="#ED901F"/>
<path d="M133.927 35.7919H131.888C131.12 35.7919 130.116 35.7715 128.892 35.7327L125.895 35.6613H127.935L130.931 35.7327C132.163 35.7708 133.162 35.7906 133.927 35.7919" fill="#9D5E12"/>
<path d="M127.519 31.0247H125.473C126.276 31.0247 127.479 30.9798 129.079 30.89C130.68 30.8001 131.882 30.7545 132.684 30.7532H134.73C133.927 30.7532 132.725 30.7988 131.126 30.89C129.526 30.9812 128.324 31.0261 127.519 31.0247" fill="#A56313"/>
<path d="M124.51 15.5207H122.472C122.766 15.5207 123.202 15.5044 123.782 15.4717C124.361 15.439 124.798 15.422 125.093 15.4207H127.134C126.839 15.4207 126.401 15.4377 125.822 15.4717C125.243 15.5057 124.806 15.5221 124.51 15.5207Z" fill="#A56313"/>
<path d="M127.935 35.6612H125.894L121.896 35.604H123.934L127.935 35.6612Z" fill="#995B11"/>
<path d="M123.72 35.6039H121.682C121.3 35.6039 120.795 35.5855 120.171 35.5447H122.21C122.834 35.5855 123.338 35.6039 123.72 35.6039Z" fill="#9D5E12"/>
<path d="M122.209 35.5477H120.171C120.116 35.5461 120.063 35.5333 120.013 35.5099C119.964 35.4865 119.92 35.4531 119.883 35.4116C119.846 35.3701 119.818 35.3213 119.8 35.2683C119.781 35.2152 119.774 35.1589 119.777 35.1026C119.777 34.06 119.792 32.4948 119.822 30.4069C119.852 28.3191 119.869 26.7538 119.871 25.7113C119.871 24.602 119.84 22.9395 119.777 20.7236C119.714 18.5078 119.682 16.8446 119.682 15.734C119.679 15.6856 119.688 15.6373 119.709 15.5939C119.73 15.5505 119.761 15.5136 119.8 15.4869H121.839C121.8 15.5136 121.769 15.5505 121.748 15.5939C121.727 15.6373 121.718 15.6856 121.721 15.734C121.721 16.8473 121.752 18.5105 121.815 20.7236C121.879 22.9367 121.91 24.5993 121.91 25.7113C121.91 26.7566 121.894 28.3218 121.861 30.4069C121.828 32.4921 121.813 34.0573 121.815 35.1026C121.812 35.1589 121.82 35.2152 121.838 35.2683C121.856 35.3213 121.885 35.3701 121.922 35.4116C121.958 35.4531 122.003 35.4865 122.052 35.5099C122.102 35.5333 122.155 35.5461 122.209 35.5477" fill="#9D5E12"/>
<path d="M121.844 15.5023H119.806C119.837 15.4818 119.87 15.4666 119.906 15.4574H121.947C121.911 15.4666 121.876 15.4818 121.844 15.5023" fill="#A16012"/>
<path d="M121.947 15.4575H119.906C119.966 15.4427 120.028 15.4359 120.089 15.437H122.124C122.063 15.4357 122.002 15.4426 121.943 15.4575" fill="#A56313"/>
<path d="M127.133 15.4207C127.265 15.4207 127.33 15.5105 127.319 15.6942L127.305 15.88C127.201 17.6793 127.081 20.3831 126.944 23.9913L126.931 27.7805C126.931 29.0054 126.935 29.9004 126.944 30.4652C126.944 30.5795 126.964 30.6939 126.972 30.8102C126.977 30.8625 127 30.9114 127.035 30.9486C127.071 30.9858 127.118 31.009 127.169 31.0144H127.516C128.319 31.0144 129.521 30.9695 131.122 30.8796C132.723 30.7898 133.924 30.7442 134.727 30.7429C134.967 30.7429 135.087 30.8511 135.087 31.0715C135.105 32.4914 134.994 33.9098 134.754 35.3079C134.707 35.5549 134.615 35.7039 134.473 35.7509C134.291 35.7819 134.107 35.7922 133.923 35.7815C133.158 35.7815 132.159 35.7618 130.927 35.7223L127.931 35.6509L123.935 35.6039H123.72C123.338 35.6039 122.833 35.5855 122.209 35.5447C122.155 35.5431 122.101 35.5303 122.052 35.5069C122.002 35.4835 121.958 35.4501 121.921 35.4086C121.884 35.3671 121.856 35.3183 121.838 35.2653C121.82 35.2122 121.812 35.1559 121.815 35.0996C121.815 34.057 121.83 32.4918 121.86 30.4039C121.891 28.3161 121.907 26.7508 121.91 25.7083C121.91 24.599 121.878 22.9365 121.815 20.7206C121.752 18.5048 121.724 16.8477 121.73 15.7494C121.73 15.5411 121.862 15.437 122.124 15.437C122.392 15.437 122.792 15.4492 123.322 15.4778C123.852 15.5064 124.248 15.5207 124.504 15.5207C124.798 15.5207 125.235 15.5044 125.816 15.4717C126.396 15.439 126.835 15.422 127.133 15.4207Z" fill="#ED901F"/>
<path d="M152.993 23.0583H150.954V23.042H152.993V23.0583Z" fill="#9D5E12"/>
<path d="M153.112 20.3023H151.08C151.026 20.3023 150.932 20.3023 150.798 20.288H152.833C152.965 20.288 153.059 20.3023 153.112 20.3023" fill="#9D5E12"/>
<path d="M151.948 22.7867H149.909C150.149 22.7526 150.39 22.7329 150.632 22.7275H152.671C152.429 22.7329 152.188 22.7526 151.948 22.7867" fill="#A56313"/>
<path d="M151.213 22.8583H149.175L149.91 22.7869H151.948L151.213 22.8583" fill="#A56313"/>
<path d="M152.258 27.8397H150.217L149.014 27.6927H151.052L152.258 27.8397Z" fill="#995B11"/>
<path d="M149.306 30.837H147.262C147.734 30.837 148.444 30.7941 149.367 30.7022C150.291 30.6103 150.998 30.5654 151.461 30.5654H153.502C153.037 30.5654 152.338 30.6124 151.406 30.7022C150.474 30.792 149.773 30.837 149.3 30.837" fill="#A56313"/>
<path d="M147.802 22.9564H145.762C146.884 22.9564 148.022 22.9237 149.173 22.8584H151.212C150.062 22.9237 148.924 22.9564 147.8 22.9564" fill="#A56313"/>
<path d="M151.051 27.6928H149.013C148.505 27.637 147.345 27.6091 145.534 27.6091H147.575C149.384 27.6091 150.543 27.637 151.051 27.6928Z" fill="#9D5E12"/>
<path d="M146.637 23.0012H144.599C144.687 23.0012 144.863 23.0012 145.121 22.9788C145.379 22.9563 145.593 22.9563 145.763 22.9563H147.801C147.632 22.9563 147.419 22.9563 147.159 22.9788C146.899 23.0012 146.726 23.0012 146.637 23.0012Z" fill="#A56313"/>
<path d="M152.699 35.7612H150.66C150.528 35.7554 150.396 35.7418 150.266 35.7204C149.609 35.6251 147.709 35.5768 144.565 35.5754H146.604C149.756 35.5754 151.656 35.6238 152.305 35.7204C152.435 35.7418 152.567 35.7554 152.699 35.7612" fill="#9D5E12"/>
<path d="M152.832 20.292H150.791C148.42 20.0811 146.288 19.9756 144.397 19.9756H146.438C148.326 19.9756 150.458 20.0811 152.832 20.292Z" fill="#9D5E12"/>
<path d="M146.352 15.5208H144.304C144.96 15.5208 145.942 15.5018 147.248 15.4637C148.555 15.4255 149.536 15.4065 150.191 15.4065H152.23C151.573 15.4065 150.592 15.4255 149.287 15.4637C147.982 15.5018 147.004 15.5208 146.352 15.5208Z" fill="#A56313"/>
<path d="M146.596 35.5753H144.557C143.872 35.5753 142.851 35.5706 141.494 35.561C140.138 35.5515 139.122 35.5468 138.445 35.5468H140.484C141.162 35.5468 142.18 35.5468 143.533 35.561C144.886 35.5753 145.911 35.5753 146.596 35.5753Z" fill="#9D5E12"/>
<path d="M140.071 15.9373H138.03L138.017 15.7372H140.055L140.071 15.9373Z" fill="#995B11"/>
<path d="M140.484 35.5468H138.445C138.15 35.5468 138.002 35.4107 138.002 35.1385C138.002 34.0673 138.058 32.4572 138.169 30.3081C138.281 28.159 138.337 26.5488 138.339 25.4777C138.339 24.3888 138.285 22.3554 138.177 19.3774C138.15 18.6118 138.102 17.4664 138.03 15.9454H140.068C140.141 17.4664 140.188 18.6118 140.216 19.3774C140.322 22.354 140.376 24.3874 140.377 25.4777C140.379 26.5679 140.323 28.1739 140.21 30.2958C140.097 32.445 140.041 34.0551 140.043 35.1263C140.043 35.4039 140.188 35.5346 140.484 35.5346" fill="#9D5E12"/>
<path d="M153.502 30.5654C153.699 30.5654 153.796 30.7389 153.796 31.0819C153.763 31.8447 153.686 32.6048 153.567 33.3583C153.408 34.5527 153.266 35.2672 153.14 35.4959C153.097 35.5786 153.034 35.6477 152.956 35.6956C152.878 35.7435 152.789 35.7683 152.699 35.7674C152.567 35.7616 152.435 35.748 152.305 35.7266C151.648 35.6313 149.748 35.583 146.604 35.5816C145.919 35.5816 144.898 35.5769 143.541 35.5673C142.188 35.5673 141.177 35.553 140.492 35.553C140.197 35.553 140.051 35.4142 140.051 35.1447C140.051 34.0736 140.107 32.4634 140.218 30.3143C140.33 28.1652 140.386 26.555 140.386 25.4839C140.386 24.395 140.332 22.3616 140.224 19.3836C140.197 18.618 140.149 17.4726 140.076 15.9516L140.065 15.7475C140.047 15.527 140.157 15.4167 140.397 15.4167C141.059 15.4167 142.05 15.4351 143.376 15.4739C144.701 15.5127 145.692 15.5311 146.352 15.5311C147.012 15.5311 147.983 15.5127 149.295 15.4739C150.607 15.4351 151.586 15.4167 152.238 15.4167C152.7 15.4167 152.97 15.6046 153.039 15.9782C153.085 16.1987 153.156 16.8642 153.248 17.979C153.341 19.0937 153.388 19.7715 153.388 20.0103C153.388 20.2145 153.299 20.3125 153.12 20.3125C153.067 20.3125 152.972 20.3125 152.84 20.2982C150.469 20.0872 148.338 19.9818 146.447 19.9818C145.974 19.9818 145.682 20.1022 145.576 20.3411C145.511 20.7051 145.488 21.076 145.509 21.4456C145.509 22.0975 145.598 22.5283 145.777 22.7379C145.929 22.9196 146.218 23.0115 146.645 23.0115C146.734 23.0115 146.909 23.0115 147.167 22.989C147.426 22.9666 147.64 22.9666 147.81 22.9666C148.935 22.9666 150.072 22.9339 151.221 22.8686L151.956 22.7971C152.196 22.763 152.437 22.7433 152.679 22.7379C152.72 22.7314 152.763 22.7346 152.803 22.7473C152.843 22.76 152.879 22.7818 152.91 22.8112C152.941 22.8406 152.965 22.8768 152.981 22.9171C152.996 22.9574 153.003 23.0009 153 23.0442C152.982 23.0442 152.903 23.7791 152.76 25.2634C152.689 26.031 152.653 26.7966 152.653 27.5602C152.653 27.7541 152.523 27.8501 152.259 27.8501L151.054 27.7031C150.546 27.6473 149.387 27.6194 147.577 27.6194H146.155C145.789 27.6194 145.564 27.7153 145.513 27.9052C145.513 27.9542 145.499 28.2502 145.499 28.7953C145.499 29.5222 145.544 29.991 145.633 30.202C145.783 30.5674 146.356 30.7818 147.345 30.8471H149.307C149.779 30.8471 150.488 30.8043 151.412 30.7124C152.336 30.6205 153.037 30.5654 153.502 30.5654Z" fill="#ED901F"/>
<path d="M140.048 15.7379H138.016C138.006 15.6862 138.011 15.6327 138.03 15.5838C138.048 15.5349 138.081 15.4927 138.122 15.4623H140.161C140.119 15.4926 140.087 15.5349 140.069 15.5839C140.05 15.6329 140.046 15.6864 140.056 15.7379" fill="#9D5E12"/>
<path d="M140.162 15.4619H138.123C138.149 15.4446 138.178 15.4315 138.208 15.4231H140.246C140.217 15.4319 140.188 15.4449 140.162 15.4619" fill="#A16012"/>
<path d="M140.247 15.4229H138.208C138.255 15.4116 138.303 15.4061 138.352 15.4065H140.39C140.342 15.4061 140.294 15.4116 140.247 15.4229" fill="#A56313"/>
<path d="M172.177 35.6325H170.138C169.343 35.6485 168.548 35.6199 167.757 35.5468C167.643 35.5372 167.53 35.5132 167.422 35.4753H169.463C169.57 35.5136 169.682 35.5376 169.795 35.5468C170.587 35.6198 171.382 35.6485 172.177 35.6325" fill="#9D5E12"/>
<path d="M169.462 35.4754H167.427C167.338 35.4033 167.269 35.3063 167.23 35.1957H169.269C169.306 35.3088 169.375 35.4082 169.466 35.4815" fill="#9D5E12"/>
<path d="M169.275 35.1956H167.231C167.095 34.82 166.9 34.2647 166.64 33.5276C166.292 32.5749 165.747 31.1642 165.007 29.2954H167.053C167.794 31.1587 168.338 32.5695 168.686 33.5276C168.944 34.2647 169.139 34.82 169.277 35.1956" fill="#9D5E12"/>
<path d="M167.054 29.2894H165.015C164.857 28.9219 164.497 28.7177 163.934 28.6769H165.974C166.536 28.7218 166.896 28.926 167.054 29.2894Z" fill="#9D5E12"/>
<path d="M166.442 25.0245H164.411C164.835 25.0304 165.258 24.9803 165.67 24.8755H167.708C167.297 24.9805 166.874 25.0305 166.45 25.0245" fill="#A56313"/>
<path d="M167.71 24.8755H165.671C165.933 24.8049 166.184 24.6941 166.415 24.5468H168.454C168.223 24.6948 167.972 24.8056 167.71 24.8755" fill="#A16012"/>
<path d="M168.453 24.5468H166.415C167.033 24.1384 167.342 23.4654 167.341 22.5276C167.341 21.3598 166.986 20.5513 166.271 20.1022C165.718 19.7551 164.853 19.5823 163.675 19.5836H165.713C166.895 19.5836 167.761 19.7565 168.31 20.1022C169.024 20.5513 169.381 21.3598 169.381 22.5276C169.381 23.4627 169.072 24.1357 168.453 24.5468" fill="#9D5E12"/>
<path d="M159.08 16.0821H157.039L157.029 15.88H159.068L159.08 16.0821Z" fill="#995B11"/>
<path d="M159.069 15.8801H157.029C157.027 15.8346 157.037 15.7895 157.059 15.7501C157.081 15.7107 157.114 15.6786 157.153 15.6576H159.191C159.153 15.6787 159.12 15.7108 159.099 15.7503C159.077 15.7897 159.067 15.8348 159.069 15.8801" fill="#9D5E12"/>
<path d="M159.191 15.6576H157.152C157.214 15.6196 157.28 15.5914 157.349 15.5739H159.39C159.321 15.5916 159.254 15.6198 159.193 15.6576" fill="#A16012"/>
<path d="M159.39 15.5738H157.35L157.45 15.5493C157.739 15.4922 159.101 15.435 161.537 15.3778C163.188 15.3411 164.501 15.322 165.477 15.3207H167.517C166.537 15.3207 165.223 15.3397 163.578 15.3778C161.145 15.4364 159.783 15.4935 159.493 15.5493L159.392 15.5738" fill="#A56313"/>
<path d="M173.368 31.4126C174.456 33.8244 174.999 35.1548 174.999 35.4039C174.999 35.4692 174.911 35.5182 174.731 35.5468C173.88 35.6259 173.025 35.6545 172.171 35.6325C171.376 35.6484 170.581 35.6198 169.789 35.5468C169.676 35.5376 169.564 35.5136 169.456 35.4753C169.365 35.402 169.297 35.3027 169.259 35.1895C169.123 34.8139 168.928 34.2585 168.668 33.5215C168.32 32.5688 167.776 31.158 167.035 29.2893C166.878 28.9218 166.517 28.7176 165.956 28.6768C166.153 28.6952 165.68 28.7034 164.548 28.7034C164.412 28.7034 164.351 28.9463 164.351 29.4363C164.351 30.0855 164.406 31.0594 164.518 32.3497C164.63 33.6399 164.686 34.6117 164.686 35.2651C164.686 35.4263 164.644 35.5223 164.563 35.5509L164.191 35.5795C163.666 35.6162 162.845 35.6353 161.729 35.6366C160.453 35.6366 159.685 35.608 159.426 35.5509C159.318 35.5445 159.216 35.4945 159.142 35.4113C159.069 35.3282 159.029 35.2186 159.032 35.1058C159.032 34.0551 159.079 32.4667 159.172 30.3407C159.266 28.2147 159.312 26.6209 159.312 25.5593C159.312 21.5101 159.227 18.3518 159.058 16.0842L159.046 15.8801C159.046 15.7167 159.176 15.6065 159.468 15.5493C159.759 15.4922 161.12 15.437 163.553 15.3778C165.204 15.3411 166.517 15.322 167.492 15.3207C169.525 15.3207 171.184 15.8134 172.468 16.7988C173.922 17.9094 174.649 19.5128 174.649 21.6088C174.649 23.0053 174.461 24.12 174.087 24.9529C173.713 25.7859 173.022 26.5951 172.015 27.3804C171.808 27.5315 171.706 27.6744 171.706 27.8091C171.706 27.8091 172.26 29.0103 173.368 31.4126ZM166.443 25.0244C168.397 25.0244 169.374 24.1921 169.374 22.5275C169.374 21.3597 169.016 20.5513 168.302 20.1021C167.751 19.755 166.885 19.5822 165.706 19.5835C164.859 19.5835 164.409 19.7196 164.357 19.9919C164.303 20.328 164.276 21.2685 164.276 22.8133C164.276 23.0338 164.276 23.3585 164.29 23.7892C164.303 24.22 164.303 24.5405 164.303 24.7529C164.303 24.7998 164.445 24.8468 164.731 24.8958C165.298 24.9832 165.87 25.0262 166.443 25.0244" fill="#ED901F"/>
<path d="M161.743 35.6326H159.703C158.428 35.6326 157.661 35.604 157.402 35.5468C157.293 35.5405 157.191 35.4904 157.118 35.4073C157.044 35.3242 157.005 35.2145 157.008 35.1018C157.008 34.051 157.055 32.4627 157.148 30.3367C157.241 28.2107 157.288 26.6169 157.288 25.5553C157.288 21.5061 157.203 18.3477 157.034 16.0802H159.072C159.242 18.3505 159.326 21.5088 159.326 25.5553C159.326 26.6182 159.28 28.2121 159.187 30.3367C159.093 32.4613 159.047 34.0497 159.047 35.1018C159.043 35.2145 159.083 35.3242 159.156 35.4073C159.23 35.4904 159.332 35.5405 159.441 35.5468C159.703 35.604 160.471 35.6326 161.743 35.6326" fill="#9D5E12"/>
<path d="M74.0026 25.5205C74.2558 25.0526 74.3944 24.5274 74.4065 23.9911C74.4185 23.4547 74.3035 22.9235 74.0715 22.4438L67.53 8.88354H66.5018V19.7938C66.8359 19.9131 67.1396 20.1092 67.3902 20.3675C67.723 20.7124 67.9498 21.1518 68.0417 21.6303C68.1335 22.1087 68.0865 22.6047 67.9064 23.0554C67.7264 23.5061 67.4214 23.8913 67.0301 24.1624C66.6387 24.4334 66.1787 24.5781 65.708 24.5781C65.2373 24.5781 64.7773 24.4334 64.3859 24.1624C63.9946 23.8913 63.6896 23.5061 63.5096 23.0554C63.3295 22.6047 63.2824 22.1087 63.3743 21.6303C63.4662 21.1518 63.693 20.7124 64.0258 20.3675C64.2764 20.1092 64.5801 19.9131 64.9142 19.7938V8.88354H63.884L57.3445 22.4438C57.1129 22.9235 56.9979 23.4546 57.0096 23.9908C57.0213 24.527 57.1592 25.0522 57.4114 25.5205L61.2209 32.5763H70.1951L74.0026 25.5205ZM63.6004 40.9999H67.8156C68.4471 40.9994 69.0525 40.7392 69.499 40.2764C69.9455 39.8136 70.1965 39.1861 70.1971 38.5316V34.4219H61.2189V38.5316C61.2189 39.1863 61.4698 39.8141 61.9164 40.277C62.363 40.7399 62.9688 40.9999 63.6004 40.9999V40.9999Z" fill="#AF5B00"/>
<path d="M55.2744 8.83257C55.9958 6.55429 57.3931 4.57036 59.2667 3.16383C61.1403 1.75729 63.3947 1 65.7082 1C68.0216 1 70.276 1.75729 72.1496 3.16383C74.0233 4.57036 75.4205 6.55429 76.1419 8.83257" stroke="#FE9A22" stroke-width="0.838548" stroke-miterlimit="10"/>
</svg>
